<svg width="1278" height="343" viewBox="0 0 1278 343" fill="none" xmlns="http://www.w3.org/2000/svg">
<path d="M0 16C0 7.16345 7.16344 0 16 0H1262C1270.84 0 1278 7.16344 1278 16V327C1278 335.837 1270.84 343 1262 343H16C7.16341 343 0 335.837 0 327V16Z" fill="#134E49"/>
<g clip-path="url(#clip0_10223_2334)">
<path fill-rule="evenodd" clip-rule="evenodd" d="M63.1588 200.822C47.8238 203.442 34.7623 187.13 19.4966 183.918C-6.05196 178.542 -39.3501 200.311 -56.5822 175.624C-72.3058 153.099 -58.8601 114.077 -47.9347 87.3182C-38.5694 64.3806 -15.493 65.5137 1 50.5C11.2558 41.1641 38.6895 46.5867 47 34.5C61.1435 13.9299 44.3466 -40.542 63.1588 -53.6601C81.6875 -66.5804 108.481 -66.4876 125.353 -50.2825C142.514 -33.8009 138.525 0.467663 146.189 26.0857C152.492 47.1546 171.242 65.5851 166.519 87.3182C161.489 110.466 136.669 114.801 123.251 131.635C114.134 143.074 110.054 159.141 100.562 170.07C89.3574 182.97 78.1099 198.268 63.1588 200.822Z" stroke="white" stroke-opacity="0.1" stroke-width="5.36256"/>
<path fill-rule="evenodd" clip-rule="evenodd" d="M46.7266 160.122C33.3771 162.402 22.0067 148.203 8.71742 145.407C-13.5233 140.727 -42.5102 159.676 -57.5113 138.188C-71.1991 118.58 -59.4943 84.6117 -49.9834 61.3191C-41.8306 41.3524 -22.3577 41.5691 -8 28.5C0.927949 20.3733 22.2655 18.5388 29.5 8.01764C41.8123 -9.88814 30.3501 -49.9802 46.7266 -61.3992C62.8564 -72.646 86.1807 -72.5652 100.869 -58.4591C115.807 -44.1122 112.335 -14.2822 119.006 8.01765C124.493 26.3576 140.816 42.401 136.705 61.3191C132.326 81.4688 110.719 85.2424 99.0388 99.8958C91.102 109.853 87.5505 123.839 79.287 133.352C69.5333 144.582 59.742 157.899 46.7266 160.122Z" stroke="white" stroke-opacity="0.1" stroke-width="5.36256"/>
<path fill-rule="evenodd" clip-rule="evenodd" d="M24.9577 125.447C13.0972 127.478 2.99512 114.833 -8.81179 112.342C-28.5716 108.174 -54.3252 125.05 -67.6529 105.913C-79.814 88.4504 -69.4147 58.1986 -60.9648 37.4544C-53.7214 19.6723 -37.5443 12.3212 -24.7882 0.681984C-16.8561 -6.55558 -6.51708 -8.72069 -0.0895388 -18.0907C10.8494 -34.0375 10.4078 -61.6677 24.9577 -71.8373C39.2882 -81.8537 60.0108 -81.7817 73.0603 -69.2189C86.3326 -56.4417 83.2473 -29.8754 89.1749 -10.0154C94.0499 6.31802 108.552 20.6061 104.899 37.4544C101.008 55.3995 81.812 58.7603 71.4346 71.8105C64.3831 80.6782 61.2278 93.1338 53.886 101.607C45.2203 111.607 36.5212 123.467 24.9577 125.447Z" stroke="white" stroke-opacity="0.1" stroke-width="5.36256"/>
</g>
<g clip-path="url(#clip1_10223_2334)">
<path fill-rule="evenodd" clip-rule="evenodd" d="M1221.16 466.822C1205.82 469.442 1192.76 453.13 1177.5 449.918C1151.95 444.542 1118.65 466.311 1101.42 441.624C1085.69 419.099 1099.14 380.077 1110.07 353.318C1119.43 330.381 1142.51 331.514 1159 316.5C1169.26 307.164 1196.69 312.587 1205 300.5C1219.14 279.93 1202.35 225.458 1221.16 212.34C1239.69 199.42 1266.48 199.512 1283.35 215.717C1300.51 232.199 1296.52 266.468 1304.19 292.086C1310.49 313.155 1329.24 331.585 1324.52 353.318C1319.49 376.466 1294.67 380.801 1281.25 397.635C1272.13 409.074 1268.05 425.141 1258.56 436.07C1247.36 448.97 1236.11 464.268 1221.16 466.822Z" stroke="white" stroke-opacity="0.1" stroke-width="5.36256"/>
<path fill-rule="evenodd" clip-rule="evenodd" d="M1204.73 426.122C1191.38 428.402 1180.01 414.203 1166.72 411.407C1144.48 406.727 1115.49 425.676 1100.49 404.188C1086.8 384.58 1098.51 350.612 1108.02 327.319C1116.17 307.352 1135.64 307.569 1150 294.5C1158.93 286.373 1180.27 284.539 1187.5 274.018C1199.81 256.112 1188.35 216.02 1204.73 204.601C1220.86 193.354 1244.18 193.435 1258.87 207.541C1273.81 221.888 1270.33 251.718 1277.01 274.018C1282.49 292.358 1298.82 308.401 1294.7 327.319C1290.33 347.469 1268.72 351.242 1257.04 365.896C1249.1 375.853 1245.55 389.839 1237.29 399.352C1227.53 410.582 1217.74 423.899 1204.73 426.122Z" stroke="white" stroke-opacity="0.1" stroke-width="5.36256"/>
<path fill-rule="evenodd" clip-rule="evenodd" d="M1182.96 391.447C1171.1 393.478 1161 380.833 1149.19 378.342C1129.43 374.174 1103.67 391.05 1090.35 371.913C1078.19 354.45 1088.59 324.199 1097.04 303.454C1104.28 285.672 1120.46 278.321 1133.21 266.682C1141.14 259.444 1151.48 257.279 1157.91 247.909C1168.85 231.963 1168.41 204.332 1182.96 194.163C1197.29 184.146 1218.01 184.218 1231.06 196.781C1244.33 209.558 1241.25 236.125 1247.17 255.985C1252.05 272.318 1266.55 286.606 1262.9 303.454C1259.01 321.4 1239.81 324.76 1229.43 337.81C1222.38 346.678 1219.23 359.134 1211.89 367.607C1203.22 377.607 1194.52 389.467 1182.96 391.447Z" stroke="white" stroke-opacity="0.1" stroke-width="5.36256"/>
</g>
<defs>
<clipPath id="clip0_10223_2334">
<rect width="195" height="212" fill="white"/>
</clipPath>
<clipPath id="clip1_10223_2334">
<rect width="205" height="190" fill="white" transform="translate(1073 153)"/>
</clipPath>
</defs>
</svg>
