<svg width="41" height="30" viewBox="0 0 41 30" fill="none" xmlns="http://www.w3.org/2000/svg">
<path d="M30.9555 17.9736C31.4009 17.9736 31.8282 17.9057 32.2536 17.8438C32.1158 18.3071 31.974 18.7784 31.7463 19.2018C31.5187 19.8169 31.1632 20.3501 30.8097 20.8873C30.5142 21.4684 29.9929 21.8618 29.6095 22.3591C29.2081 22.8424 28.6609 23.1639 28.2275 23.5653C27.8022 23.9847 27.245 24.1944 26.8016 24.49C26.3383 24.7556 25.9349 25.0491 25.5036 25.1889L24.4271 25.6323L23.4805 26.0257L24.4491 29.896L25.6413 29.6084C26.0228 29.5126 26.4881 29.4007 27.0173 29.2669C27.5585 29.1671 28.1357 28.8935 28.7787 28.6438C29.4138 28.3603 30.1487 28.1685 30.8317 27.7132C31.5187 27.2779 32.3115 26.9144 33.0105 26.3313C33.6875 25.7301 34.5043 25.2089 35.1074 24.444C35.7664 23.7291 36.4175 22.9782 36.9227 22.1235C37.5079 21.3087 37.9053 20.414 38.3247 19.5293C38.7041 18.6446 39.0096 17.7399 39.2593 16.8612C39.7326 15.0998 39.9443 13.4263 40.0261 11.9944C40.094 10.5605 40.0541 9.36825 39.9702 8.50552C39.9403 8.09812 39.8844 7.70271 39.8444 7.42911L39.7945 7.09361L39.7426 7.10559C39.3874 5.44637 38.5697 3.92162 37.3841 2.70771C36.1985 1.4938 34.6935 0.640333 33.0432 0.246048C31.3928 -0.148237 29.6645 -0.067234 28.0583 0.479687C26.452 1.02661 25.0334 2.0171 23.9666 3.33658C22.8998 4.65606 22.2283 6.25061 22.0298 7.93577C21.8314 9.62094 22.1141 11.3279 22.8452 12.8591C23.5763 14.3903 24.726 15.6832 26.1613 16.5883C27.5965 17.4934 29.2587 17.9737 30.9555 17.9736ZM8.9879 17.9736C9.43325 17.9736 9.86061 17.9057 10.286 17.8438C10.1482 18.3071 10.0064 18.7784 9.77874 19.2018C9.55107 19.8169 9.1956 20.3501 8.84212 20.8873C8.54655 21.4684 8.02532 21.8618 7.64189 22.3591C7.24048 22.8424 6.69329 23.1639 6.25993 23.5653C5.83455 23.9847 5.27737 24.1944 4.83403 24.49C4.37071 24.7556 3.96731 25.0491 3.53594 25.1889L2.45953 25.6323L1.51292 26.0257L2.48149 29.896L3.67374 29.6084C4.05518 29.5126 4.52049 29.4007 5.04971 29.2669C5.59091 29.1671 6.16806 28.8935 6.81111 28.6438C7.44418 28.3583 8.18109 28.1685 8.86408 27.7112C9.55107 27.2759 10.3439 26.9124 11.0429 26.3293C11.7199 25.7281 12.5367 25.2069 13.1398 24.444C13.7988 23.7291 14.4499 22.9782 14.9551 22.1235C15.5402 21.3087 15.9377 20.414 16.357 19.5293C16.7365 18.6446 17.042 17.7399 17.2917 16.8612C17.765 15.0998 17.9767 13.4263 18.0585 11.9944C18.1264 10.5605 18.0865 9.36825 18.0026 8.50552C17.9727 8.09812 17.9167 7.70271 17.8768 7.42911L17.8269 7.09361L17.7749 7.10559C17.4198 5.44637 16.6021 3.92162 15.4165 2.70771C14.2309 1.4938 12.7259 0.640333 11.0755 0.246048C9.42518 -0.148237 7.69692 -0.067234 6.09067 0.479687C4.48442 1.02661 3.06583 2.0171 1.99899 3.33658C0.932159 4.65606 0.260674 6.25061 0.0622253 7.93577C-0.136223 9.62094 0.146465 11.3279 0.877594 12.8591C1.60872 14.3903 2.75841 15.6832 4.19367 16.5883C5.62893 17.4934 7.2911 17.9737 8.9879 17.9736Z" fill="#0D9488"/>
</svg>
